# xmcd CD database file
#
# Track frame offsets:
#	150
#	15482
#	32565
#	52645
#	74105
#	91767
#	110460
#	134372
#	153912
#	170267
#
# Disc length: 2579 seconds
#
# Revision: 0
# Processed by: cddbd v1.4PL0 Copyright (c) Steve Scherf et al.
# Submitted via: CDex 1.40Beta9
#
DISCID=720a110a
DTITLE=emiko shirarori - HELO
DYEAR=1900
DGENRE=Blues
TTITLE0=Prologue ~Deep
TTITLE1=Sailing Home
TTITLE2=Close your Eyes
TTITLE3=Song of The Herat
TTITLE4=Hello
TTITLE5=Remember
TTITLE6=The Dance
TTITLE7=Who Can Say
TTITLE8=You are so Berautiful
TTITLE9=The Deep
EXTD=ID3G: 0
EXTT0=
EXTT1=
EXTT2=
EXTT3=
EXTT4=
EXTT5=
EXTT6=
EXTT7=
EXTT8=
EXTT9=
PLAYORDER=
